<svg width="22" height="23" viewBox="0 0 22 23" fill="none" xmlns="http://www.w3.org/2000/svg">
<path d="M9.97557 1.00245C8.99521 1.11855 8.10085 1.32494 7.31398 1.60872C3.37105 3.03196 0.571875 6.51481 0.0644972 10.6082C-0.0214991 11.3005 -0.0214991 12.5818 0.0644972 13.2741C0.601974 17.604 3.68924 21.2675 7.86866 22.5316C9.64018 23.0691 11.631 23.1465 13.4154 22.7509C15.6771 22.2478 17.784 20.9837 19.2933 19.2337C20.7122 17.5868 21.5593 15.7637 21.9162 13.5966C22.0279 12.9129 22.0279 10.9608 21.9162 10.2857C21.7055 9.0259 21.383 8.03695 20.824 6.94479C20.308 5.92574 19.633 4.99698 18.8117 4.18001C17.1606 2.52888 15.1138 1.48403 12.7275 1.07985C12.3362 1.01105 10.354 0.959452 9.97557 1.00245ZM11.6009 5.02278C11.9019 5.17327 12.0481 5.32806 12.2072 5.66345L12.319 5.89994L12.3319 8.27343L12.3448 10.6469L14.7183 10.6598L17.0918 10.6727L17.3283 10.7845C17.6636 10.9436 17.8184 11.0898 17.9689 11.3908C18.0764 11.6058 18.1022 11.7047 18.1022 11.9412C18.1022 12.1777 18.0764 12.2766 17.9689 12.4916C17.8184 12.7925 17.6636 12.9387 17.3283 13.0978L17.0918 13.2096L14.7183 13.2225L12.3448 13.2354L12.3319 15.6519L12.319 18.0684L12.2072 18.3049C12.0481 18.6403 11.9019 18.7951 11.6009 18.9456C11.2311 19.1348 10.8699 19.1348 10.5001 18.9456C10.1992 18.7951 10.053 18.6403 9.89387 18.3049L9.78208 18.0684L9.76918 15.6519L9.75628 13.2354L7.33978 13.2225L4.92329 13.2096L4.6868 13.0978C4.35141 12.9387 4.19662 12.7925 4.04613 12.4916C3.85693 12.1218 3.85693 11.7606 4.04613 11.3908C4.19662 11.0898 4.35141 10.9436 4.6868 10.7845L4.92329 10.6727L7.33978 10.6598L9.75628 10.6469L9.76918 8.27343L9.78208 5.89994L9.89387 5.66345C10.053 5.32806 10.1992 5.17327 10.5001 5.02278C10.7151 4.91528 10.814 4.88948 11.0505 4.88948C11.287 4.88948 11.3859 4.91528 11.6009 5.02278Z" fill="#BCC2C8"/>
</svg>
